<svg id="Capa_1" enable-background="new 0 0 512 512" height="512" viewBox="0 0 512 512" width="512" xmlns="http://www.w3.org/2000/svg" xmlns:xlink="http://www.w3.org/1999/xlink"><linearGradient id="SVGID_1_" gradientUnits="userSpaceOnUse" x1="256" x2="256" y1="496" y2="16"><stop offset="0" stop-color="#00b59c"/><stop offset="1" stop-color="#9cffac"/></linearGradient><g><g><g><path d="m151 91c0-8.284-6.716-15-15-15h-60c-8.284 0-15 6.716-15 15s6.716 15 15 15h60c8.284 0 15-6.716 15-15zm15 135c-8.284 0-15 6.716-15 15v45h-30v-45c0-8.284-6.716-15-15-15s-15 6.716-15 15v60c0 8.284 6.716 15 15 15h45v45c0 8.284 6.716 15 15 15s15-6.716 15-15v-120c0-8.284-6.716-15-15-15zm180 90h45v45c0 8.284 6.716 15 15 15s15-6.716 15-15v-120c0-8.284-6.716-15-15-15s-15 6.716-15 15v45h-30v-45c0-8.284-6.716-15-15-15s-15 6.716-15 15v60c0 8.284 6.716 15 15 15zm151-300c-24.109 0-473.59 0-482 0-8.284 0-15 6.716-15 15v450c0 8.284 6.716 15 15 15h482c8.284 0 15-6.716 15-15v-450c0-8.284-6.716-15-15-15zm-15 450h-452v-420h129.787l55.606 55.606c2.813 2.813 6.628 4.394 10.607 4.394h256zm0-390h-249.787l-30-30h279.787zm-271 165v120c0 8.284 6.716 15 15 15h60c8.284 0 15-6.716 15-15v-120c0-8.284-6.716-15-15-15h-60c-8.284 0-15 6.716-15 15zm30 15h30v90h-30z" fill="url(#SVGID_1_)"/></g></g></g></svg>